<svg id="SvgjsSvg1075" width="550" height="550" xmlns="http://www.w3.org/2000/svg" version="1.1" xmlns:xlink="http://www.w3.org/1999/xlink" xmlns:svgjs="http://svgjs.com/svgjs"><defs id="SvgjsDefs1076"></defs><g id="SvgjsG1077"><svg xmlns="http://www.w3.org/2000/svg" xmlns:xlink="http://www.w3.org/1999/xlink" enable-background="new 0 0 2000 1836.406" viewBox="0 0 2000 1836.406" width="550" height="550"><path fill="#F2F0FF" d="M1636.292 923.273c109.855-68.552 183.364-193.536 183.364-336.362 0-216.552-168.98-392.102-377.428-392.102-90.747 0-174.01 33.276-239.111 88.717-86.991-78.528-202.24-126.345-328.661-126.345-260.494 0-473.573 202.998-489.679 459.431C247.724 728.654 160.23 899.043 160.23 1089.874c0 337.435 273.546 610.981 610.981 610.981 114.509 0 221.654-31.51 313.255-86.319 70.907 48.055 156.458 76.129 248.567 76.129 245.004 0 443.62-198.615 443.62-443.62 0-127.72-53.978-242.829-140.361-323.772z" class="colorf2f0ff svgShape"></path><path fill="#FFFFFF" d="M287.562 1018.381H682.13s14.782-33.867-31.838-36.137c0 0 22.742-33.178-17.056-49.881-39.798-16.703-60.265 14.319-60.265 14.319s-13.645-22.791-45.483-6.855c0 0-19.33-46.838-87.555-35.881-68.225 10.957-48.895 48.032-48.895 48.032s-26.153-9.836-30.701 14.376c-.002 0-102.339-13.983-72.775 52.027zM1375.813 560.917h572.101l-206.838-32.263s-1.152-62.221-69.135-36.872c0 0-5.554-47.242-58.085-49.547-52.531-2.305-49.074 42.633-49.074 42.633s-66.83-43.785-106.007-1.152c-39.176 42.633 23.045 54.156 23.045 54.156l-106.007 23.045z" class="colorfff svgShape"></path><defs><path id="a" d="M1636.292 923.273c109.855-68.552 183.364-193.536 183.364-336.362 0-216.552-168.98-392.102-377.428-392.102-90.747 0-174.01 33.276-239.111 88.717-86.991-78.528-202.24-126.345-328.661-126.345-260.494 0-473.573 202.998-489.679 459.431C247.724 728.654 160.23 899.043 160.23 1089.874c0 337.435 273.546 610.981 610.981 610.981 114.509 0 221.654-31.51 313.255-86.319 70.907 48.055 156.458 76.129 248.567 76.129 245.004 0 443.62-198.615 443.62-443.62 0-127.72-53.978-242.829-140.361-323.772z"></path><path id="a" d="M1636.292 923.273c109.855-68.552 183.364-193.536 183.364-336.362 0-216.552-168.98-392.102-377.428-392.102-90.747 0-174.01 33.276-239.111 88.717-86.991-78.528-202.24-126.345-328.661-126.345-260.494 0-473.573 202.998-489.679 459.431C247.724 728.654 160.23 899.043 160.23 1089.874c0 337.435 273.546 610.981 610.981 610.981 114.509 0 221.654-31.51 313.255-86.319 70.907 48.055 156.458 76.129 248.567 76.129 245.004 0 443.62-198.615 443.62-443.62 0-127.72-53.978-242.829-140.361-323.772z"></path></defs><clipPath id="b"><use overflow="visible" xlink:href="#a"></use></clipPath><g clip-path="url(#b)"><path fill="#FFCC46" d="M283.498 1353.896h1173.909v152.739H283.498z" transform="rotate(-37.608 870.406 1430.147)" class="colorffcc46 svgShape"></path><path fill="#FFCC46" d="m1248.84 959.68 177.98 230.2 29.569-206.763z" class="colorffcc46 svgShape"></path><path fill="#FFA42F" d="m451.161 1822.349-80.009-103.864-12.294 9.47 93.21 121.001 929.979-716.38-13.201-17.137z" class="colorffa42f svgShape"></path></g><g clip-path="url(#b)"><path fill="#7860DC" d="M794.273 1151.281h177.864v23.142H794.273z" transform="rotate(-37.608 883.158 1162.756)" class="color7860dc svgShape"></path><path fill="#7860DC" d="m940.537 1091.551 26.966 34.879 4.48-31.328z" class="color7860dc svgShape"></path><path fill="#3F327A" d="m819.676 1222.258-12.122-15.737-1.863 1.435 14.123 18.334 140.905-108.543-2-2.596z" class="color3f327a svgShape"></path></g><g clip-path="url(#b)"><path fill="#E5649A" d="M647.835 1204.189h522.168v67.94H647.835z" transform="rotate(-37.608 908.868 1238.055)" class="colore5649a svgShape"></path><path fill="#E5649A" d="m1077.231 1028.837 79.167 102.396 13.153-91.971z" class="colore5649a svgShape"></path><path fill="#DB4A87" d="m722.414 1412.562-35.589-46.2-5.468 4.213 41.46 53.822 413.666-318.654-5.872-7.622z" class="colordb4a87 svgShape"></path></g><g clip-path="url(#b)"><path fill="#7860DC" d="M1017.929 1337.1h361.436v47.027h-361.436z" transform="rotate(-37.608 1198.574 1360.496)" class="color7860dc svgShape"></path><path fill="#7860DC" d="m1315.15 1215.725 54.798 70.876 9.104-63.66z" class="color7860dc svgShape"></path><path fill="#3F327A" d="m1069.551 1481.333-24.634-31.979-3.785 2.916 28.698 37.255 286.333-220.567-4.064-5.276z" class="color3f327a svgShape"></path></g><g clip-path="url(#b)"><path fill="#E5649A" d="M997.311 1509.017h213.69v27.803h-213.69z" transform="rotate(-37.606 1104.28 1523.033)" class="colore5649a svgShape"></path><path fill="#E5649A" d="m1173.036 1437.257 32.398 41.904 5.382-37.638z" class="colore5649a svgShape"></path><path fill="#DB4A87" d="m1027.831 1594.291-14.564-18.907-2.238 1.724 16.967 22.026 169.287-130.405-2.402-3.119z" class="colordb4a87 svgShape"></path></g><path fill="#E5649A" d="m687.031 718.903 627.82-101.577-494.845 172.695z" class="colore5649a svgShape"></path><path fill="#C23470" d="M820.006 790.021 899.1 935.099l415.751-317.773z" class="colorc23470 svgShape"></path><path fill="#E5649A" d="m1314.851 617.326-250.62 315.995-189.172-120.149z" class="colore5649a svgShape"></path><path fill="#DB4A87" d="M875.059 813.172 899.1 935.099l76.213-58.253z" class="colordb4a87 svgShape"></path><path fill="#5F5399" d="m1090.448 432.706 141.213-46.257a7.338 7.338 0 1 1 4.222 14.051l-143.324 39.231a3.67 3.67 0 0 1-4.508-2.57 3.678 3.678 0 0 1 2.397-4.455z" class="color5f5399 svgShape"></path><path fill="#4D418A" d="m1206.768 394.603-2.006.657c3.286.89 4.205 4.357 4.43 7.71a21.379 21.379 0 0 1-.383 4.941l3.37-.922c.848-5.436-.153-10.985-5.411-12.386z" class="color4d418a svgShape"></path><path fill="#5F5399" d="m1172.396 405.862-27.302 8.943c2.465 2.343 3.643 6.034 3.448 9.602l27.562-7.544c-.025-4.237-1.08-8.337-3.708-11.001zM1143.155 415.441l-52.707 17.265a3.678 3.678 0 0 0-2.397 4.456 3.67 3.67 0 0 0 4.508 2.57l53.673-14.691c.576-3.376-.256-7.066-3.077-9.6z" class="color5f5399 svgShape"></path><path fill="#4D418A" d="m1145.094 414.806-1.938.635c2.821 2.534 3.653 6.225 3.077 9.6l2.31-.632c.194-3.57-.984-7.26-3.449-9.603zM1174.372 405.215l-1.976.647c2.628 2.664 3.683 6.764 3.708 11.001l2.255-.617c.411-4.323-.877-8.764-3.987-11.031z" class="color4d418a svgShape"></path><path fill="#5F5399" d="M1209.192 402.971c-.225-3.353-1.143-6.82-4.43-7.71l-30.39 9.955c3.11 2.267 4.398 6.708 3.986 11.031l30.45-8.335a21.38 21.38 0 0 0 .384-4.941z" class="color5f5399 svgShape"></path><path fill="#5F5399" d="M1240.919 391.138a7.338 7.338 0 0 0-9.258-4.689l-24.894 8.154c5.258 1.401 6.259 6.95 5.411 12.386l23.705-6.488a7.34 7.34 0 0 0 5.036-9.363z" class="color5f5399 svgShape"></path><path fill="#4D418A" d="M1240.919 391.138a7.314 7.314 0 0 0-1.401-2.489 7.338 7.338 0 0 1-5.238 8.615l-143.324 39.231a3.646 3.646 0 0 1-3.014-.512c-.023.388.001.783.109 1.178a3.67 3.67 0 0 0 4.508 2.57l143.324-39.231a7.338 7.338 0 0 0 5.036-9.362z" class="color4d418a svgShape"></path><path fill="#4D418A" d="M1094.737 436.807a3.437 3.437 0 1 1-6.765-1.217 3.437 3.437 0 0 1 6.765 1.217z" class="color4d418a svgShape"></path><path fill="#DB4A87" d="m901.066 456.213 26.168 23.053s35.397-30.567 101.417-16.587c-37.254-20.025-86.38-17.189-127.585-6.466z" class="colordb4a87 svgShape"></path><path fill="#E5649A" d="M1028.65 462.679a194.883 194.883 0 0 1 16.374 4.226s-63.496-36.264-119.051-35.901l-25.908 24.328 1 .881c41.206-10.723 90.332-13.559 127.585 6.466z" class="colore5649a svgShape"></path><path fill="#FF96A9" d="M1048.369 470.943c1.953.202 3.634-.357 4.136-2.072.761-2.6 3.068-6.212 5.293-9.303-1.043-.574-2.061-1.287-3.104-1.857a329.286 329.286 0 0 0-6.325 13.232z" class="colorff96a9 svgShape"></path><path fill="#ED7E94" d="M1056.552 450.964s-11.306 6.456-15.361 11.731c-2.791 3.632 2.859 7.8 7.177 8.247a332.02 332.02 0 0 1 6.324-13.232c1.044.57 2.062 1.283 3.104 1.857a110.543 110.543 0 0 1 4.874-6.262l-6.118-2.341z" class="colored7e94 svgShape"></path><path fill="#ED7E94" d="m1078.325 440.324-2.795-6.238c-23.91 1.705-33.892 14.611-22.106 20.457 5.081 2.52 9.743 3.268 13.5 3.176-.383-6.998 5.391-13.146 11.401-17.395z" class="colored7e94 svgShape"></path><path fill="#FF96A9" d="M1078.325 440.324c-6.01 4.249-11.785 10.397-11.401 17.395 4.957-.122 8.333-1.71 8.974-2.655 1.127-1.661.492-9.643.492-9.643l3.277-2.103-1.342-2.994z" class="colorff96a9 svgShape"></path><path fill="#3F327A" d="M1068.918 445.527s20.066-10.264 27.29-35.467c0 0-62.2 3.93-59.443 34.655 2.757 30.725 25.401 4.568 25.401 4.568s-1.25-4.159-.087-6.02c1.162-1.863 6.839 2.264 6.839 2.264z" class="color3f327a svgShape"></path><path fill="#8B77E8" d="M1134.736 596.499s-78.802-41.15-148.072-25.117c3.555 16.742 23.852 21.355 39.07 25.778 27.537 8.835 56.331 5.275 84.619 4.537-30.756 27.722-53.217 64.768-69.662 103.41-.052.253-.107.5-.158.754 0-.001 81.14-78.169 94.203-109.362z" class="color8b77e8 svgShape"></path><path fill="#7860DC" d="M1025.734 597.16c-15.219-4.422-35.515-9.036-39.07-25.778-6.944 1.607-13.793 3.782-20.456 6.637 0 0-32.404 37.424 12.027 52.867 44.43 15.443 118.389-25.091 118.389-25.091s-40.716 25.176-55.932 99.31c16.445-38.642 38.906-75.688 69.662-103.41-28.289.74-57.084 4.3-84.62-4.535z" class="color7860dc svgShape"></path><path fill="#7860DC" d="M984.87 635.442c17.617 1.187 34.508-3.602 48.879-12.844 4.441-13.605 7.054-21.87 7.054-21.87s-27.832-47.105-56.019 5.248c-22.777 42.305-32.018 172.482-34.727 220.897 9.095-64.027 21.601-128.231 34.813-191.431z" class="color7860dc svgShape"></path><path fill="#8B77E8" d="M1033.749 622.597c-14.371 9.243-31.262 14.031-48.879 12.844-13.212 63.201-25.718 127.405-34.813 191.431-.643 11.5-.919 18.392-.919 18.392 26.803-49.066 68.198-172.377 84.611-222.667z" class="color8b77e8 svgShape"></path><path fill="#FF96A9" d="M1144.587 429.35a59.176 59.176 0 0 0-3.255-3.102s3.315-7.686-1.066-10.958c-4.381-3.272-16.243-4.853-23.815.411a38.717 38.717 0 0 0-4.106 3.288c.048 2.37 1.15 4.534 3.563 6.041 6.847 5.115 16.156 1.934 21.292 5.77a28.11 28.11 0 0 1 2.316 2.248 25.252 25.252 0 0 1 5.071-3.698z" class="colorff96a9 svgShape"></path><path fill="#ED7E94" d="M1115.907 425.03c-2.412-1.507-3.515-3.671-3.563-6.041-5.37 4.955-8.445 10.888-3.347 13.592 6.301 3.342 15.18 7.699 25.33 3.451 0 0 .537.537 1.394 1.492a25.358 25.358 0 0 1 3.793-4.475 28.273 28.273 0 0 0-2.316-2.248c-5.134-3.836-14.444-.656-21.291-5.771z" class="colored7e94 svgShape"></path><path fill="#FEF2FE" d="M1143.078 437.728c1.597-1.621 3.329-3.089 5.225-4.246a71.163 71.163 0 0 0-3.716-4.132 25.248 25.248 0 0 0-5.072 3.698 29.992 29.992 0 0 1 3.563 4.68z" class="colorfef2fe svgShape"></path><path fill="#EAC7ED" d="M1139.515 433.049a25.322 25.322 0 0 0-3.793 4.475 69.57 69.57 0 0 1 3.672 4.461 46.64 46.64 0 0 1 3.685-4.256 29.966 29.966 0 0 0-3.564-4.68zM965.588 543.719a226.6 226.6 0 0 1-1.368-3.737 32.425 32.425 0 0 1-3.741 1.563 226.18 226.18 0 0 1 1.043 3.824 29.917 29.917 0 0 0 4.066-1.65z" class="coloreac7ed svgShape"></path><path fill="#FEF2FE" d="M953.817 546.768a29.13 29.13 0 0 0 7.706-1.398 223.64 223.64 0 0 0-1.043-3.824 31.635 31.635 0 0 1-9.115 1.756 103.49 103.49 0 0 0 2.452 3.466z" class="colorfef2fe svgShape"></path><path fill="#7860DC" d="M1018.754 479.403c-23.152 4.574-44.762 11.368-67.142 17.052-.667 15.723 4.729 30.399 8.867 45.09a32.707 32.707 0 0 0 3.741-1.563c-3.872-10.859-10.104-30.887-6.706-39.121 0 0 34.185-13.937 53.543-13.355 2.29.069 4.799.317 7.435.693.565-2.775.84-5.633.262-8.796zM1139.393 441.985c3.548 4.69 7.891 11.656 9.279 19.047.283-8.403-1.495-16.679-5.594-23.304a47.1 47.1 0 0 0-3.685 4.257zM1172.152 478.998s-.074-.238-.222-.685c-31.042 17.099-68.556 19.717-104.554 23.165 10.424 1.27 55.611 4.727 104.776-22.48z" class="color7860dc svgShape"></path><path fill="#8B77E8" d="M1148.303 433.482c-1.896 1.158-3.628 2.626-5.225 4.246 4.1 6.624 5.877 14.901 5.594 23.304.594 3.163.65 6.404-.134 9.579 0 0-39.834 14.646-102.865-7.316 0 0-15.749-2.418-28.504-.57-12.755 1.847-59.868 12.838-84.406 29.545 0 0 1.251 25.568 18.601 51.033a31.669 31.669 0 0 0 9.115-1.756c-4.138-14.691-9.534-29.367-8.867-45.09 22.381-5.684 43.99-12.478 67.142-17.052.578 3.163.303 6.021-.263 8.796 19.653 2.803 46.634 12.963 46.634 12.963s.781.136 2.252.315c35.997-3.449 73.511-6.066 104.554-23.165-1.426-4.323-9.683-28.153-23.628-44.832z" class="color8b77e8 svgShape"></path><path fill="#ED7E94" d="M957.473 566.439c-6.407 1.48-12.691-6.532-10.068-13.142-4.498-.988-10.413-1.168-10.322 4.762.146 9.551 13.828 27.085 32.922 11.51 4.367-3.563 4.906-16.924-3.032-22.285 0 0-.547-1.341-1.384-3.565a29.922 29.922 0 0 1-4.066 1.651c1.01 3.843 1.893 7.694 2.514 11.57 1.034 5.04-2.633 9.235-6.564 9.499z" class="colored7e94 svgShape"></path><path fill="#FF96A9" d="M957.009 550.876s-6.578.888-4.64 3.928c0 0-2.218-.904-4.964-1.507-2.623 6.61 3.661 14.622 10.068 13.142 3.931-.264 7.598-4.459 6.562-9.499-.621-3.877-1.503-7.727-2.514-11.57a29.09 29.09 0 0 1-7.706 1.398 106.31 106.31 0 0 0 3.194 4.108z" class="colorff96a9 svgShape"></path><path fill="#8B77E8" d="M1010.818 477.318s-12.392 57.402-29.092 74.276c-16.7 16.874-44.293 36.758-44.293 36.758s14.435 18.745 24.473 25.105c0 0 12.336-11.033 20.797-28.146 0 0-4.792 28.954-9.083 34.393 0 0 23.941 14.243 64.812-1.183 0 0 29.148-69.503 26.694-117.359-2.456-47.855-54.308-23.844-54.308-23.844z" class="color8b77e8 svgShape"></path><path fill="#3F327A" d="m1043.204 694.15 41.83-2.028-50.746 17.378zM949.494 837.539l-6.134 16.073 45.899-26.116z" class="color3f327a svgShape"></path><path fill="#7860DC" d="M1038.238 462.469s1.621-2.854 9.244-.877c7.623 1.977 8.827 5.136 8.827 5.136s-13.865-3.978-18.071-4.259zM1149.626 437.852a1.038 1.038 0 1 1-2.043-.368 1.038 1.038 0 0 1 2.043.368z" class="color7860dc svgShape"></path><path fill="#EAC7ED" d="M1145.732 433.02a1.038 1.038 0 1 1-2.043-.368 1.038 1.038 0 0 1 2.043.368z" class="coloreac7ed svgShape"></path><path fill="#7860DC" d="M1151.728 440.338a1.037 1.037 0 1 1-2.042-.367 1.037 1.037 0 0 1 2.042.367zM1153.741 442.809a1.037 1.037 0 1 1-2.043-.368 1.038 1.038 0 1 1 2.043.368zM1023.792 584.973a.955.955 0 0 1 .138-1.895l23.747-.794a.955.955 0 1 1 .064 1.91l-23.748.794a.957.957 0 0 1-.201-.015z" class="color7860dc svgShape"></path><path fill="#FFCC46" d="M420.795 845.262a1.432 1.432 0 0 1-.138-2.79l293.451-83.193a1.434 1.434 0 0 1 .782 2.758L421.439 845.23a1.44 1.44 0 0 1-.644.032zM1009.533 1005.467a1.432 1.432 0 0 1-.857-2.315l46.113-56.704a1.43 1.43 0 0 1 2.016-.207c.614.499.708 1.401.207 2.016l-46.113 56.704a1.43 1.43 0 0 1-1.366.506zM780.538 957.009a1.433 1.433 0 0 1-.509-2.624l140.393-88.338a1.435 1.435 0 0 1 1.526 2.427l-140.393 88.338a1.434 1.434 0 0 1-1.017.197z" class="colorffcc46 svgShape"></path><path fill="#FFFFFF" d="M352.725 1701.201h677.097l-268.689-50.788s34.93-78.72-51.051-71.057c0 0 10.748-90.666-69.859-71.057 0 0-5.374-90.554-107.476-82.493-102.102 8.061-56.425 116.45-56.425 116.45s-107.476-74.319-163.9 0c-56.425 74.319 40.303 158.945 40.303 158.945z" class="colorfff svgShape"></path></svg></g></svg>